<?xml version="1.0" encoding="UTF-8" standalone="no"?>
<!-- Created with Inkscape (http://www.inkscape.org/) -->

<svg
   width="256mm"
   height="256mm"
   viewBox="0 0 256 256"
   version="1.1"
   id="svg10494"
   inkscape:version="1.1 (c68e22c387, 2021-05-23)"
   sodipodi:docname="beach_papaya.svg"
   xmlns:inkscape="http://www.inkscape.org/namespaces/inkscape"
   xmlns:sodipodi="http://sodipodi.sourceforge.net/DTD/sodipodi-0.dtd"
   xmlns="http://www.w3.org/2000/svg"
   xmlns:svg="http://www.w3.org/2000/svg">
  <sodipodi:namedview
     id="namedview10496"
     pagecolor="#ffffff"
     bordercolor="#999999"
     borderopacity="1"
     inkscape:pageshadow="0"
     inkscape:pageopacity="0"
     inkscape:pagecheckerboard="0"
     inkscape:document-units="mm"
     showgrid="false"
     width="209mm"
     inkscape:zoom="0.3884119"
     inkscape:cx="-68.22654"
     inkscape:cy="144.17684"
     inkscape:window-width="1816"
     inkscape:window-height="1060"
     inkscape:window-x="99"
     inkscape:window-y="-5"
     inkscape:window-maximized="1"
     inkscape:current-layer="layer1" />
  <defs
     id="defs10491" />
  <g
     inkscape:label="Camada 1"
     inkscape:groupmode="layer"
     id="layer1">
    <g
       id="g10623"
       transform="matrix(0.42024636,0,0,0.42024636,22.181975,31.376157)">
      <g
         id="g10571">
        <path
           d="m 372,254.5 c -64.79,0 -117.5,52.71 -117.5,117.5 0,32.395 13.177,61.77 34.454,83.046 L 455.059,288.94 C 433.783,267.665 404.395,254.5 372,254.5 Z"
           fill="#ea5b70"
           id="path10565" />
        <path
           d="M 455.059,288.941 288.954,455.046 C 310.23,476.322 339.605,489.5 372,489.5 c 64.79,0 117.5,-52.71 117.5,-117.5 0,-32.395 -13.164,-61.783 -34.441,-83.059 z"
           fill="#fce3a0"
           id="path10567" />
        <path
           d="m 455.059,288.941 c -44.875,-2.816 -88.772,13.758 -120.566,45.552 -31.794,31.794 -48.395,75.716 -45.578,120.592 44.875,2.816 88.798,-13.784 120.592,-45.578 31.794,-31.794 48.368,-75.691 45.552,-120.566 z"
           fill="#55dafe"
           id="path10569" />
      </g>
      <path
         d="m 196.855,7.509 c -12.494,0.343 -22.293,10.908 -22.293,23.406 v 345.116 h 45.875 V 30.437 C 220.438,17.556 209.817,7.153 196.855,7.509 Z"
         fill="#d4d4ff"
         id="path10573" />
      <g
         id="g10581">
        <path
           d="m 7.517,215.89 c -0.367,5.622 5.321,9.678 10.536,7.544 31.628,-12.936 66.873,-13.705 98.935,-2.321 10.695,3.798 22.803,4.018 34.078,0.018 15.004,-5.324 30.719,-7.985 46.434,-7.985 V 38.083 C 96.578,38.083 13.996,116.607 7.517,215.89 Z"
           fill="#ea5b70"
           id="path10575" />
        <path
           d="m 197.5,38.083 v 175.064 c 15.715,0 31.43,2.661 46.434,7.985 10.521,3.733 22.64,4.043 34.078,-0.018 32.062,-11.384 67.307,-10.615 98.935,2.321 5.215,2.133 10.903,-1.923 10.536,-7.544 C 381.004,116.607 298.422,38.083 197.5,38.083 Z"
           fill="#ff8e9e"
           id="path10577" />
        <path
           d="m 134.055,224.043 c 5.694,0.002 11.454,-0.939 17.011,-2.911 30.009,-10.647 62.86,-10.647 92.868,0 5.356,1.9 11.127,2.908 17.011,2.909 C 260.16,120.939 232.056,38.083 197.5,38.083 c -34.556,0 -62.66,82.857 -63.445,185.96 z"
           fill="#efedff"
           id="path10579" />
      </g>
      <g
         id="g10587">
        <path
           d="M 356,377.743 H 207.5 V 504.5 h 297 C 470.831,446.56 418.486,401.392 356,377.743 Z"
           fill="#fce3a0"
           id="path10583" />
        <path
           d="M 356,377.743 C 324.836,365.949 291.153,359.5 256,359.5 150.362,359.5 57.96,417.663 7.5,504.5 h 200 C 241.169,446.56 293.513,401.392 356,377.743 Z"
           fill="#ffce71"
           id="path10585" />
      </g>
      <g
         fill="#ffdbe0"
         id="g10593">
        <ellipse
           cx="97.477997"
           cy="150.28799"
           rx="25"
           ry="18.788"
           id="ellipse10589" />
        <ellipse
           cx="297.522"
           cy="150.28799"
           rx="25"
           ry="18.788"
           id="ellipse10591" />
      </g>
      <g
         id="g10621">
        <path
           d="m 113.502,112.999 c -4.142,0 -7.5,3.358 -7.5,7.5 v 10 c 0,4.142 3.358,7.5 7.5,7.5 4.142,0 7.5,-3.358 7.5,-7.5 v -10 c 0,-4.142 -3.358,-7.5 -7.5,-7.5 z"
           id="path10595" />
        <path
           d="m 274.001,120.499 v 10 c 0,4.142 3.358,7.5 7.5,7.5 4.142,0 7.5,-3.358 7.5,-7.5 v -10 c 0,-4.142 -3.358,-7.5 -7.5,-7.5 -4.142,0 -7.5,3.358 -7.5,7.5 z"
           id="path10597" />
        <path
           d="m 220.767,136.735 c 1.787,-3.737 0.206,-8.215 -3.531,-10.001 -3.737,-1.789 -8.215,-0.206 -10.001,3.531 -3.644,7.62 -14.817,7.635 -18.468,0 -1.787,-3.737 -6.266,-5.317 -10.001,-3.531 -3.737,1.787 -5.318,6.265 -3.531,10.001 9.056,18.939 36.449,18.995 45.532,0 z"
           id="path10599" />
        <path
           d="m 510.984,500.731 c -11.185,-19.248 -24.41,-37.139 -39.345,-53.354 37.938,-50.088 32.808,-120.293 -11.987,-164.403 -72.937,-71.823 -195.15,-29.82 -211.055,69.13 -6.905,0.178 -13.796,0.596 -20.658,1.266 V 224.212 c 4.552,1.084 9.053,2.414 13.489,3.988 12.214,4.333 26.086,4.601 39.094,-0.019 30.194,-10.721 63.498,-10.111 93.583,2.193 10.281,4.211 21.556,-3.719 20.862,-14.973 -2.407,-36.89 -15.082,-72.257 -36.653,-102.277 -2.418,-3.366 -7.104,-4.132 -10.467,-1.715 -3.364,2.417 -4.132,7.104 -1.715,10.467 19.931,27.739 31.642,60.417 33.871,94.536 -0.024,0.043 -0.117,0.095 -0.218,0.08 -57.266,-23.422 -102.507,-2.104 -111.461,-0.581 -1.048,-48.965 -10.363,-129.981 -40.41,-167.819 37.637,6.256 72.254,24.098 99.638,51.79 2.912,2.945 7.66,2.972 10.606,0.06 2.945,-2.912 2.972,-7.661 0.06,-10.606 C 307.991,58.768 269.618,39.289 227.939,32.9 v -2.463 c 0,-17.12 -14.073,-30.883 -31.288,-30.426 C 181.494,0.427 167.064,12.473 167.064,32.928 76.989,46.84 6.145,121.764 0.036,215.383 c -0.758,11.085 10.447,19.251 20.857,14.992 30.048,-12.289 63.351,-12.932 93.586,-2.194 12.241,4.347 26.11,4.626 39.094,0.019 4.436,-1.574 8.937,-2.903 13.489,-3.988 v 141.78 c -18.496,5.946 -36.422,13.736 -53.454,23.304 -3.61,2.029 -4.894,6.602 -2.865,10.213 2.028,3.61 6.6,4.892 10.213,2.865 C 249.333,330.254 410.375,371.692 491.114,497 H 20.872 c 20.02,-31.188 45.341,-57.729 75.409,-79.017 3.38,-2.394 4.181,-7.074 1.787,-10.455 -2.394,-3.38 -7.071,-4.182 -10.455,-1.787 -35.394,25.058 -64.529,57.018 -86.595,94.99 -1.349,2.32 -1.354,5.184 -0.017,7.51 C 2.34,510.566 4.819,512 7.502,512 H 504.5 c 2.684,0 5.162,-1.434 6.5,-3.759 1.339,-2.326 1.333,-5.189 -0.016,-7.51 z M 197.063,15.005 c 8.181,-0.187 15.876,5.9 15.876,16.172 -10.789,-0.826 -20.876,-0.762 -30.875,0.012 0,-9.27 7.066,-15.966 14.999,-16.184 z m -70.385,200.907 c -8.986,-1.527 -54.135,-22.85 -111.527,0.6 -0.036,0 -0.129,-0.058 -0.147,-0.134 C 20.58,130.931 84.993,62.005 167.055,48.136 137.093,85.921 127.732,166.669 126.678,215.912 Z m 15.003,-0.046 c 1.011,-46.016 7.529,-88.738 18.533,-121.048 10.499,-30.829 24.438,-49.234 37.287,-49.234 12.849,0 26.787,18.405 37.287,49.233 11.004,32.31 17.522,75.032 18.534,121.049 -2.338,-0.412 -4.642,-1.01 -6.878,-1.803 -54.302,-19.264 -95.873,0.236 -104.763,1.803 z m 71.258,139.37 c -10.4,1.564 -20.709,3.688 -30.875,6.366 V 221.558 c 9.982,-1.176 20.242,-1.252 30.875,0 z m 50.865,-3.121 c 14.355,-79.011 105.595,-115.608 170.612,-70.64 -51.173,3.395 -98.719,30.643 -127.26,75.082 -14.28,-2.558 -28.77,-4.049 -43.352,-4.442 z m 59.212,7.736 c 28.647,-41.023 75.609,-64.577 124.852,-63.721 0.625,36.864 -12.56,72.94 -36.81,100.723 -27.679,-17.448 -57.375,-29.728 -88.042,-37.002 z m 100.623,45.389 c 22.901,-26.883 36.524,-60.591 38.882,-95.662 26.896,38.883 25.501,89.65 -1.468,126.865 -11.616,-11.405 -24.133,-21.847 -37.414,-31.203 z"
           id="path10601" />
        <circle
           cx="165.502"
           cy="412.422"
           r="7.5"
           id="circle10603" />
        <circle
           cx="85.501999"
           cy="472.422"
           r="7.5"
           id="circle10605" />
        <path
           d="m 153.002,462.422 c 0,-4.142 -3.358,-7.5 -7.5,-7.5 -4.142,0 -7.5,3.358 -7.5,7.5 0,4.142 3.358,7.5 7.5,7.5 4.142,0 7.5,-3.358 7.5,-7.5 z"
           id="path10607" />
        <circle
           cx="235.50101"
           cy="392.422"
           r="7.5"
           id="circle10609" />
        <circle
           cx="225.50101"
           cy="474.422"
           r="7.5"
           id="circle10611" />
        <circle
           cx="285.50101"
           cy="434.422"
           r="7.5"
           id="circle10613" />
        <circle
           cx="335.50101"
           cy="404.422"
           r="7.5"
           id="circle10615" />
        <circle
           cx="355.50101"
           cy="464.422"
           r="7.5"
           id="circle10617" />
        <circle
           cx="415.50101"
           cy="444.422"
           r="7.5"
           id="circle10619" />
      </g>
    </g>
    <g
       id="g10563"
       transform="matrix(0.26596135,0,0,0.26251034,42.464976,133.71261)">
      <path
         d="m 98.011,8.605 9.194,7.305 a 7.855,7.855 0 0 1 1.531,10.733 45.105,45.105 0 0 0 -8.642,29.157 H 83.432 c 0,0 -2.291,-29.992 14.579,-47.195 z"
         fill="#353535"
         id="path10498" />
      <path
         d="m 157.355,192.764 c -19.31,-34.921 -18.64,-56.065 -18.386,-66.118 0.415,-16.374 -0.432,-32.325 -2.889,-43.322 -9,-20.39 -23.344,-32.53 -43.163,-36.21 0,0 -0.294,-0.02 -0.835,-0.034 -5.735,-0.145 -39.288,0.472 -46.85,34.32 -2.457,11 -3.491,28.646 -3.076,45.02 0.255,10.054 1.106,28.031 -18.2,62.952 0,0 -33.834,57.439 26.976,113.38 8.994,8.275 36.831,23.146 41.99,20.094 105.164,-62.228 64.433,-130.082 64.433,-130.082 z"
         fill="#80b297"
         id="path10500" />
      <path
         d="M 86.629,320 C 70.4,311.079 51.96,288.627 46.451,254.309 a 2.318,2.318 0 0 1 4.466,-1.172 c 7.2,19.965 21.866,47.75 49.406,57.174 z"
         fill="#3e6a51"
         id="path10502" />
      <path
         d="m 47.047,190.244 a 3.25,3.25 0 0 0 6.334,1.327 c 2.642,-8.439 6.45,-18.278 11.46,-25.6 14.071,-20.563 7.726,-56.374 7.726,-86.39 a 56.157,56.157 0 0 1 0.555,-8.1 4.223,4.223 0 0 0 -8.069,-2.262 31.729,31.729 0 0 0 -2.414,12.737 v 34.134 c 0,0 0.6,34.1 -6.258,46.681 0,-10e-4 -7.651,12.404 -9.334,27.473 z"
         fill="#3e6a51"
         id="path10504" />
      <path
         d="m 50.935,302.744 a 198.914,198.914 0 0 0 33.6,24.542 16.479,16.479 0 0 0 16.76,0 C 206.464,265.059 161.88,189.372 161.88,189.372 142.57,154.451 143.421,136.472 143.68,126.42 144.094,110.046 143.061,92.398 140.604,81.4 132.328,44.356 92.919,47.114 92.919,47.114 c 0,0 -0.282,-0.019 -0.794,-0.033 l -0.042,0.033 c 0,0 20.35,2.451 20.35,32.467 0,10.291 -0.737,20.986 -1.273,31.5 l -0.342,13.379 a 111.093,111.093 0 0 0 8.754,46.15 l 7.942,18.759 c 7.686,21.645 12.413,53.321 -5.724,97.439 -0.002,0.003 -19.347,48.767 -70.855,15.936 z"
         fill="#3e6a51"
         id="path10506" />
      <circle
         cx="46.416"
         cy="224.367"
         fill="#3e6a51"
         r="3.553"
         id="circle10508" />
      <path
         d="m 299.034,94.583 a 26.39,26.39 0 0 1 2.554,0.832 36.927,36.927 0 0 1 21.836,46.595 c -0.613,1.79 -1.3,3.769 -2.056,5.913 a 113.977,113.977 0 0 0 -5.634,50.676 132.32,132.32 0 0 1 -0.861,35.47 116.239,116.239 0 0 1 -8.174,28.043 c -25.521,39.966 -69.9,60.166 -127.359,66.666 z"
         fill="#80b297"
         id="path10510" />
      <path
         d="m 224.165,293.53 a 260.288,260.288 0 0 0 -28.818,3.929 l -16.007,31.319 a 104.461,104.461 0 0 0 40.22,1.241 c 39.32,-6.179 71.732,-32.483 87.119,-67.916 -15.056,14.883 -40.293,27.842 -82.514,31.427 z"
         fill="#3e6a51"
         id="path10512" />
      <path
         d="m 279.655,94.068 a 12.876,12.876 0 0 0 -6.515,-9.276 13.307,13.307 0 0 0 -13.035,0.506 c -6.629,3.952 -19.349,13.605 -33.265,35.036 a 177,177 0 0 1 -32,36.619 c -17.132,15.006 -39.836,40.291 -44.412,71.786 -5.9,40.611 10.636,79.436 18.1,94.383 a 10.426,10.426 0 0 0 10.811,5.657 C 205.778,325 294.327,304.072 294.99,193.017 a 123.449,123.449 0 0 1 9.641,-46.634 c 5.436,-13.075 9.46,-29.962 2.31,-43.118 -7.39,-13.6 -16.947,-10.641 -22.5,-7.16 a 3.147,3.147 0 0 1 -4.786,-2.037 z"
         fill="#ffa466"
         id="path10514" />
      <path
         d="m 261.626,132.514 a 1.812,1.812 0 0 1 2.765,0.451 c 1.6,2.741 4.049,8.659 2.927,17.993 -1.752,14.563 -8.991,21.559 -8.991,42.319 0,0 6.435,49.062 -24.074,72.627 -34.249,26.453 -46.006,28.971 -46.006,28.971 0,0 -18.61,-36.656 -3.2,-74.562 15.41,-37.906 62.2,-57.692 62.2,-57.692 l -3.26,-14.808 c 0,0 9.252,-7.935 17.639,-15.299 z"
         fill="#d15f5d"
         id="path10516" />
      <path
         d="m 264.908,161.647 a 11.785,11.785 0 0 0 -4.6,-1.827 14.282,14.282 0 1 0 -27.315,1.1 13.371,13.371 0 0 0 -10.156,15.235 18.594,18.594 0 0 0 -18.394,29.43 15.236,15.236 0 0 0 -4.88,6.556 c -0.341,-0.021 -0.68,-0.052 -1.027,-0.052 a 16.951,16.951 0 0 0 -16.951,16.951 c 0,0.383 0.032,0.759 0.057,1.136 a 13.025,13.025 0 0 0 -2.657,22.747 15.716,15.716 0 0 0 17.415,21.477 12.669,12.669 0 0 0 6.825,13.148 c 6.079,-3.481 26.191,-15.64 38.44,-28.632 19.931,-20.7 17.152,-57.114 17.152,-57.114 a 153.428,153.428 0 0 1 0.137,-18.513 c 1.203,-9.015 3.876,-15.073 5.954,-21.642 z"
         fill="#353535"
         id="path10518" />
      <ellipse
         cx="78.829002"
         cy="193.868"
         fill="#caefda"
         rx="14.233"
         ry="10.362"
         transform="matrix(0.147,-0.989,0.989,0.147,-124.536,243.282)"
         id="ellipse10520" />
      <g
         fill="#afafaf"
         id="g10536">
        <circle
           cx="211.64799"
           cy="191.478"
           r="3.829"
           id="circle10522" />
        <circle
           cx="189.50301"
           cy="257.923"
           r="3.5810001"
           id="circle10524" />
        <circle
           cx="193.565"
           cy="224.987"
           r="3.503"
           id="circle10526" />
        <circle
           cx="211.98801"
           cy="241.545"
           r="3.49"
           id="circle10528" />
        <circle
           cx="234.048"
           cy="204.696"
           r="3.8829999"
           id="circle10530" />
        <circle
           cx="243.86099"
           cy="153.21201"
           r="3.2449999"
           id="circle10532" />
        <circle
           cx="235.673"
           cy="233.86501"
           r="3.4820001"
           id="circle10534" />
      </g>
    </g>
  </g>
</svg>
