<svg id="Capa_1" enable-background="new 0 0 512 512" height="512" viewBox="0 0 512 512" width="512" xmlns="http://www.w3.org/2000/svg"><g><g><path d="m124.537 304.727c5.712 5.712 5.712 14.972 0 20.684l41.153-41.153c5.635-5.635 14.817-5.98 20.605-.502 6.005 5.684 6.103 15.162.295 20.971l10.127-10.127c5.635-5.635 14.817-5.98 20.605-.502 6.005 5.684 6.103 15.162.295 20.971l-13.789 13.789c5.808-5.808 15.287-5.71 20.971.295 5.479 5.788 5.133 14.969-.502 20.605l-13.789 13.789c5.635-5.635 14.817-5.981 20.605-.502 6.005 5.684 6.103 15.162.294 20.971l-53.629 53.629c-14.92 14.92-34.726 22.201-54.327 21.704-5.379-.137-10.587 1.895-14.392 5.7l-17.933 17.933-62.052-62.052 17.71-17.71c3.839-3.839 5.863-9.103 5.696-14.53-.599-19.462 6.528-39.117 21.383-53.971l29.992-29.992c5.709-5.712 14.97-5.712 20.682 0z" fill="#e7beaf"/></g><g><path d="m210.505 363.547-53.413 53.413c-13.434 13.434-30.828 20.675-48.467 21.621-9.734.522-18.962 4.493-25.854 11.385l-12.331 12.331 20.684 20.684 17.933-17.933c3.805-3.805 9.012-5.837 14.392-5.7 19.601.498 39.407-6.783 54.327-21.704l53.628-53.628c5.808-5.808 5.71-15.286-.294-20.971-5.788-5.479-14.97-5.133-20.605.502z" fill="#e1ac9a"/></g><g><path d="m110.058 484.679-17.237 17.237c-2.856 2.856-7.486 2.856-10.342 0l-72.394-72.394c-2.856-2.856-2.856-7.486 0-10.342l17.237-17.237c2.856-2.856 7.486-2.856 10.342 0l72.394 72.394c2.856 2.855 2.856 7.486 0 10.342z" fill="#a4e7ff"/></g><g><path d="m84.203 458.823-17.237 17.237c-2.856 2.856-7.486 2.856-10.342 0l25.855 25.855c2.856 2.856 7.486 2.856 10.342 0l17.237-17.237c2.856-2.856 2.856-7.486 0-10.342l-25.855-25.855c2.855 2.856 2.855 7.487 0 10.342z" fill="#5ad6ff"/></g><g><path d="m206.83 124.094c-5.712 5.712-14.972 5.712-20.684 0l41.153 41.153c5.635 5.635 5.98 14.817.502 20.605-5.684 6.005-15.162 6.103-20.971.295l10.127 10.127c5.635 5.635 5.98 14.817.502 20.605-5.684 6.005-15.162 6.103-20.971.295l-13.789-13.789c5.808 5.808 5.71 15.287-.295 20.971-5.788 5.479-14.969 5.133-20.605-.502l-13.789-13.789c5.635 5.635 5.981 14.817.502 20.605-5.684 6.004-15.162 6.103-20.971.294l-53.629-53.629c-14.92-14.92-22.201-34.726-21.704-54.327.137-5.379-1.895-10.587-5.7-14.392l-17.932-17.935 62.052-62.052 17.71 17.71c3.839 3.839 9.103 5.863 14.53 5.696 19.462-.599 39.117 6.528 53.971 21.383l29.992 29.992c5.711 5.711 5.711 14.972-.001 20.684z" fill="#ffeee5"/></g><g><path d="m148.01 210.062-53.413-53.413c-13.434-13.434-20.675-30.828-21.621-48.467-.522-9.734-4.493-18.962-11.385-25.854l-12.331-12.331-20.684 20.684 17.933 17.933c3.805 3.805 5.837 9.013 5.7 14.392-.498 19.601 6.783 39.407 21.704 54.327l53.629 53.628c5.808 5.808 15.286 5.71 20.971-.294 5.478-5.787 5.133-14.969-.503-20.605z" fill="#ffdecf"/></g><g><path d="m26.879 109.615-17.237-17.237c-2.856-2.856-2.856-7.486 0-10.342l72.394-72.394c2.856-2.856 7.486-2.856 10.342 0l17.237 17.237c2.856 2.856 2.856 7.486 0 10.342l-72.394 72.394c-2.856 2.856-7.486 2.856-10.342 0z" fill="#ff938a"/></g><g><path d="m52.734 83.76-17.237-17.237c-2.856-2.856-2.856-7.486 0-10.342l-25.855 25.855c-2.856 2.856-2.856 7.486 0 10.342l17.237 17.237c2.856 2.856 7.486 2.856 10.342 0l25.855-25.855c-2.856 2.856-7.486 2.856-10.342 0z" fill="#fb695b"/></g><g><path d="m387.698 207.038c-5.712-5.712-5.712-14.972 0-20.684l-41.153 41.153c-5.635 5.635-14.817 5.98-20.605.502-6.005-5.684-6.103-15.162-.295-20.971l-10.127 10.127c-5.635 5.635-14.817 5.98-20.605.502-6.005-5.684-6.103-15.162-.295-20.971l13.789-13.789c-5.808 5.808-15.287 5.71-20.971-.295-5.479-5.788-5.133-14.969.502-20.605l13.789-13.789c-5.635 5.635-14.817 5.981-20.605.502-6.005-5.684-6.103-15.162-.294-20.971l53.629-53.629c14.92-14.92 34.726-22.201 54.327-21.704 5.379.137 10.587-1.895 14.392-5.7l17.933-17.933 62.052 62.052-17.71 17.71c-3.839 3.839-5.863 9.103-5.696 14.53.599 19.462-6.528 39.117-21.383 53.971l-29.992 29.992c-5.709 5.712-14.97 5.712-20.682 0z" fill="#e7beaf"/></g><g><path d="m301.73 148.218 53.413-53.413c13.434-13.434 30.828-20.675 48.467-21.621 9.734-.522 18.962-4.493 25.854-11.385l12.331-12.331-20.684-20.684-17.933 17.933c-3.805 3.805-9.012 5.837-14.392 5.7-19.601-.498-39.407 6.783-54.327 21.704l-53.629 53.629c-5.808 5.808-5.71 15.286.294 20.971 5.788 5.478 14.97 5.132 20.606-.503z" fill="#e1ac9a"/></g><g><path d="m402.177 27.086 17.237-17.236c2.856-2.856 7.486-2.856 10.342 0l72.394 72.394c2.856 2.856 2.856 7.486 0 10.342l-17.237 17.237c-2.856 2.856-7.486 2.856-10.342 0l-72.394-72.394c-2.856-2.856-2.856-7.487 0-10.343z" fill="#f9ee80"/></g><g><path d="m428.032 52.941 17.237-17.237c2.856-2.856 7.486-2.856 10.342 0l-25.855-25.854c-2.856-2.856-7.486-2.856-10.342 0l-17.237 17.237c-2.856 2.856-2.856 7.486 0 10.342l25.855 25.855c-2.856-2.856-2.856-7.487 0-10.343z" fill="#f4e74d"/></g><g><path d="m305.17 387.906c5.712-5.712 14.972-5.712 20.684 0l-41.153-41.153c-5.635-5.635-5.98-14.817-.502-20.605 5.684-6.005 15.162-6.103 20.971-.295l-10.127-10.127c-5.635-5.635-5.98-14.817-.502-20.605 5.684-6.005 15.162-6.103 20.971-.295l13.789 13.789c-5.808-5.808-5.71-15.287.295-20.971 5.788-5.479 14.969-5.133 20.605.502l13.789 13.789c-5.635-5.635-5.981-14.817-.502-20.605 5.684-6.004 15.162-6.103 20.971-.294l53.629 53.629c14.92 14.92 22.201 34.726 21.704 54.327-.137 5.379 1.895 10.587 5.7 14.392l17.933 17.933-62.052 62.052-17.71-17.71c-3.839-3.839-9.103-5.863-14.53-5.696-19.462.599-39.117-6.528-53.971-21.383l-29.992-29.99c-5.712-5.712-5.712-14.972 0-20.684z" fill="#ffeee5"/></g><g><path d="m363.99 301.937 53.413 53.413c13.434 13.434 20.675 30.828 21.621 48.467.522 9.734 4.493 18.962 11.385 25.854l12.331 12.331 20.684-20.684-17.933-17.933c-3.805-3.805-5.837-9.013-5.7-14.392.498-19.601-6.783-39.407-21.704-54.327l-53.628-53.629c-5.808-5.808-15.286-5.71-20.971.294-5.479 5.789-5.134 14.971.502 20.606z" fill="#ffdecf"/></g><g><path d="m485.121 402.385 17.237 17.237c2.856 2.856 2.856 7.486 0 10.342l-72.394 72.394c-2.856 2.856-7.486 2.856-10.342 0l-17.237-17.237c-2.856-2.856-2.856-7.486 0-10.342l72.394-72.394c2.856-2.856 7.486-2.856 10.342 0z" fill="#80e0b7"/></g><g><path d="m459.266 428.24 17.237 17.237c2.856 2.856 2.856 7.486 0 10.342l25.855-25.855c2.856-2.856 2.856-7.486 0-10.342l-17.237-17.237c-2.856-2.856-7.486-2.856-10.342 0l-25.855 25.855c2.856-2.856 7.486-2.856 10.342 0z" fill="#36d49b"/></g><g><path d="m277.325 238.099c-5.371-3.761-13.257-2.595-20.903 2.264-1.393.885-3.175.885-4.568 0-7.646-4.859-15.532-6.025-20.903-2.264-8.71 6.099-10.155 18.671.036 33.225 4.773 6.817 11.252 12.858 17.686 16.729 3.357 2.019 7.573 2.019 10.93 0 6.435-3.871 12.913-9.912 17.686-16.729 10.191-14.554 8.746-27.126.036-33.225z" fill="#fd7a6e"/></g><g><path d="m236.978 239.422c0-1.188.058-2.362.168-3.521-2.28.194-4.381.9-6.194 2.17-8.71 6.099-10.155 18.671.036 33.225 4.773 6.817 11.252 12.858 17.686 16.729 3.357 2.019 7.573 2.019 10.93 0 4.754-2.86 9.532-6.905 13.628-11.572-20.094-.42-36.254-16.838-36.254-37.031z" fill="#f85647"/></g><g><path d="m230.753 353.815c7.366-8.576 7.26-21.61-.51-29.818-1.852-1.956-3.995-3.529-6.335-4.679 3.625-4.119 5.565-9.355 5.489-14.897-.083-6.023-2.541-11.624-6.921-15.769-7.053-6.678-17.671-7.693-25.96-3.175-1.172-2.666-2.879-5.099-5.066-7.168-8.616-8.159-22.551-7.868-31.064.645l-26.333 26.333c-1.059-2.144-2.474-4.124-4.214-5.864-8.626-8.625-22.663-8.624-31.29 0l-29.992 29.992c-15.664 15.665-24.257 37.353-23.576 59.506.084 2.716-.734 5.354-2.258 7.497-2.769-2.652-6.385-4.118-10.231-4.118-3.957 0-7.677 1.541-10.475 4.339l-17.236 17.237c-5.774 5.775-5.774 15.173 0 20.949l72.394 72.393c2.798 2.799 6.518 4.34 10.475 4.34s7.677-1.541 10.474-4.339l17.236-17.236c2.798-2.798 4.339-6.518 4.339-10.475 0-3.838-1.461-7.446-4.102-10.213 2.166-1.632 4.873-2.517 7.661-2.448 22.258.541 44.067-8.146 59.82-23.898l53.628-53.629c4.261-4.26 6.562-9.924 6.479-15.949-.083-6.023-2.54-11.625-6.92-15.771-1.664-1.577-3.528-2.837-5.512-3.785zm-4.652 24.897-53.628 53.629c-12.86 12.86-30.667 20.001-48.833 19.51-6.872-.174-13.595 2.282-18.686 6.775l-21.496-21.496c-2.929-2.928-7.678-2.928-10.606 0-2.929 2.93-2.929 7.678 0 10.607l31.771 31.771-16.973 16.971-72.13-72.129 16.973-16.973 18.966 18.967c2.929 2.928 7.678 2.928 10.606 0 2.929-2.93 2.929-7.678 0-10.607l-8.655-8.655c4.396-5.102 6.774-11.779 6.564-18.623-.563-18.298 6.252-35.5 19.189-48.438l29.992-29.992c2.779-2.777 7.3-2.777 10.079.001 1.346 1.346 2.086 3.135 2.086 5.038s-.741 3.692-2.087 5.038l-21.392 21.394c-2.929 2.93-2.929 7.678 0 10.607 1.464 1.464 3.384 2.196 5.303 2.196s3.839-.732 5.303-2.196l21.393-21.393 41.153-41.153c2.822-2.822 7.374-2.982 10.146-.359 1.414 1.339 2.207 3.145 2.234 5.084.026 1.941-.714 3.766-2.086 5.137l-41.368 41.369c-2.929 2.93-2.929 7.678 0 10.607 1.464 1.464 3.384 2.196 5.303 2.196s3.839-.732 5.303-2.196l41.368-41.369 10.127-10.127c2.821-2.821 7.372-2.983 10.145-.357 1.414 1.338 2.207 3.143 2.233 5.082.027 1.941-.714 3.766-2.086 5.138l-13.79 13.789-37.921 37.921c-2.929 2.93-2.929 7.678 0 10.607 1.464 1.464 3.384 2.196 5.303 2.196s3.839-.732 5.303-2.196l37.921-37.921.003-.003c1.371-1.37 3.188-2.065 5.135-2.084 1.94.026 3.745.82 5.084 2.234 2.624 2.771 2.463 7.323-.359 10.145l-13.764 13.765c-.008.008-.017.017-.025.024l-23.917 23.917c-2.929 2.93-2.929 7.678 0 10.607 1.464 1.464 3.384 2.196 5.303 2.196s3.839-.732 5.303-2.196l23.917-23.917c2.821-2.822 7.373-2.983 10.146-.357 1.414 1.338 2.207 3.143 2.233 5.082.027 1.941-.714 3.766-2.086 5.137z"/><path d="m21.576 114.919c2.888 2.888 6.68 4.331 10.474 4.331 3.683 0 7.359-1.374 10.213-4.095 1.633 2.167 2.52 4.875 2.449 7.66-.565 22.265 8.146 44.068 23.898 59.821l53.628 53.628c4.187 4.187 9.729 6.481 15.636 6.481.104 0 .209-.001.313-.002 6.024-.083 11.625-2.541 15.771-6.921 1.576-1.665 2.837-3.528 3.784-5.514 8.575 7.366 21.609 7.261 29.818-.509 1.957-1.853 3.53-3.995 4.679-6.336 4.12 3.626 9.352 5.595 14.897 5.489 6.023-.083 11.624-2.541 15.77-6.921 6.677-7.054 7.694-17.671 3.174-25.96 2.667-1.172 5.098-2.879 7.168-5.065 8.157-8.617 7.868-22.552-.645-31.064l-26.34-26.34c2.122-1.042 4.109-2.444 5.872-4.207 8.625-8.626 8.625-22.663 0-31.29l-29.992-29.992c-15.665-15.664-37.372-24.276-59.505-23.575-2.719.085-5.355-.734-7.497-2.259 2.652-2.769 4.118-6.384 4.118-10.231 0-3.957-1.541-7.677-4.339-10.474l-17.239-17.236c-5.776-5.775-15.173-5.773-20.948 0l-72.395 72.395c-2.797 2.798-4.338 6.518-4.338 10.474 0 3.957 1.541 7.677 4.339 10.475zm101.522-55.388c18.295-.563 35.5 6.253 48.438 19.19l29.992 29.991c2.778 2.778 2.778 7.299 0 10.078-1.346 1.346-3.135 2.087-5.038 2.087-1.469 0-2.867-.446-4.049-1.266-.17-.212-.351-.417-.547-.614l-21.394-21.392c-2.929-2.928-7.678-2.928-10.606 0-2.929 2.93-2.929 7.678 0 10.607l19.961 19.961c.281.433.609.844.989 1.223l41.153 41.153c2.822 2.821 2.983 7.372.358 10.145-1.338 1.414-3.144 2.208-5.084 2.234-1.493-.008-2.942-.443-4.159-1.281-.167-.206-.344-.406-.536-.598l-41.368-41.368c-2.929-2.928-7.678-2.928-10.606 0-2.929 2.93-2.929 7.678 0 10.607l39.938 39.938c.281.432.608.842.987 1.221l.026.026 10.101 10.102c2.822 2.821 2.982 7.372.358 10.145-1.338 1.414-3.143 2.207-5.083 2.234h-.101c-1.903 0-3.689-.738-5.037-2.086l-12.356-12.357c-.282-.434-.61-.846-.99-1.226l-37.921-37.921c-2.929-2.928-7.678-2.928-10.606 0-2.929 2.93-2.929 7.678 0 10.607l36.49 36.49c.281.432.609.843.988 1.222l.014.015c1.363 1.371 2.099 3.189 2.072 5.124-.026 1.939-.82 3.744-2.233 5.083-2.773 2.622-7.324 2.462-10.146-.359l-12.358-12.357c-.281-.433-.609-.844-.989-1.224l-23.917-23.916c-2.929-2.928-7.678-2.928-10.606 0-2.929 2.93-2.929 7.678 0 10.607l22.485 22.485c.281.432.609.843.988 1.222v.001l.014.014c2.808 2.823 2.964 7.363.344 10.131-1.338 1.414-3.144 2.208-5.083 2.234-1.941.022-3.765-.714-5.137-2.087l-53.629-53.629c-12.86-12.859-19.971-30.658-19.509-48.833.175-6.878-2.281-13.596-6.775-18.685l51.543-51.543c5.102 4.397 11.78 6.774 18.624 6.565zm-35.891-44.454 16.973 16.973-72.13 72.13-16.972-16.973z"/><path d="m281.482 157.95c-7.365 8.575-7.26 21.609.51 29.818 1.852 1.956 3.995 3.529 6.335 4.679-3.625 4.119-5.565 9.355-5.489 14.896.083 6.023 2.541 11.624 6.921 15.771 7.054 6.679 17.671 7.694 25.96 3.175 1.172 2.665 2.879 5.098 5.066 7.167 4.188 3.965 9.631 5.934 15.098 5.934 5.782 0 11.591-2.203 15.966-6.578l26.333-26.333c1.059 2.145 2.474 4.123 4.214 5.864 8.628 8.628 22.665 8.627 31.291 0l29.992-29.992c15.665-15.665 24.257-37.354 23.576-59.505-.084-2.716.734-5.354 2.258-7.498 2.857 2.733 6.54 4.111 10.23 4.111 3.793 0 7.587-1.444 10.475-4.331l17.236-17.237c2.798-2.798 4.339-6.518 4.339-10.475s-1.541-7.677-4.339-10.475l-72.395-72.395c-5.776-5.775-15.174-5.773-20.948 0l-17.237 17.237c-2.798 2.798-4.339 6.518-4.339 10.475 0 3.838 1.461 7.446 4.102 10.214-2.169 1.637-4.881 2.534-7.661 2.447-22.255-.524-44.067 8.146-59.821 23.897l-53.628 53.629c-4.26 4.261-6.562 9.925-6.479 15.95.082 6.023 2.54 11.624 6.92 15.771 1.666 1.576 3.529 2.837 5.514 3.784zm143.103-142.665 72.13 72.13-16.973 16.973-72.129-72.13zm-138.451 117.768 53.628-53.629c12.86-12.859 30.66-19.973 48.833-19.509 6.872.173 13.594-2.282 18.686-6.775l51.543 51.543c-4.396 5.102-6.774 11.779-6.564 18.623.563 18.298-6.252 35.499-19.189 48.437l-29.992 29.992c-2.778 2.779-7.299 2.779-10.078 0-1.346-1.346-2.087-3.135-2.087-5.038 0-1.902.741-3.69 2.085-5.036.001-.001.002-.002.003-.002l21.393-21.393c2.929-2.93 2.929-7.678 0-10.607-2.929-2.928-7.678-2.928-10.606 0l-62.546 62.546c-2.822 2.82-7.374 2.98-10.145.358-1.414-1.339-2.208-3.145-2.234-5.084-.026-1.94.714-3.765 2.086-5.137l41.368-41.368c2.929-2.93 2.929-7.678 0-10.607-2.929-2.928-7.678-2.928-10.606 0l-41.368 41.368-10.127 10.128c-2.822 2.819-7.374 2.98-10.145.358-1.414-1.339-2.208-3.145-2.234-5.084-.027-1.94.714-3.765 2.086-5.138l13.779-13.78c.003-.003.007-.006.01-.009l37.921-37.92c2.929-2.93 2.929-7.678 0-10.607-2.929-2.927-7.678-2.929-10.606 0l-37.921 37.92-.015.015c-1.347 1.34-3.126 2.073-5.023 2.073-.033 0-.067 0-.101-.001-1.939-.026-3.745-.819-5.083-2.232-2.624-2.773-2.463-7.324.359-10.146l13.784-13.784.005-.005 23.917-23.916c2.929-2.93 2.929-7.678 0-10.607-2.928-2.928-7.677-2.928-10.606 0l-23.917 23.916c-.001.001-.002.002-.003.003-2.821 2.817-7.371 2.98-10.142.356-1.414-1.339-2.208-3.144-2.234-5.083-.027-1.943.714-3.767 2.086-5.139z"/><path d="m507.661 414.318-17.237-17.237c-5.691-5.69-14.893-5.761-20.687-.236-1.633-2.167-2.52-4.875-2.449-7.66.565-22.265-8.146-44.068-23.898-59.821l-2.082-2.081c-2.929-2.928-7.678-2.928-10.606.001-2.929 2.93-2.928 7.678.001 10.606l2.081 2.081c12.86 12.859 19.971 30.658 19.509 48.833-.175 6.878 2.281 13.596 6.774 18.686l-51.543 51.543c-5.104-4.396-11.792-6.774-18.623-6.564-18.299.566-35.5-6.253-48.438-19.19l-29.992-29.991c-2.778-2.778-2.778-7.3 0-10.078 1.346-1.346 3.135-2.087 5.038-2.087s3.693.741 5.039 2.088c.379.379.79.707 1.222.987l19.963 19.962c1.464 1.464 3.384 2.196 5.303 2.196s3.839-.732 5.303-2.197c2.929-2.929 2.929-7.678 0-10.606l-21.393-21.392c-.379-.379-.79-.707-1.222-.988l-39.723-39.723c-2.822-2.821-2.983-7.373-.358-10.145 1.338-1.414 3.144-2.208 5.083-2.234 1.939.02 3.752.709 5.123 2.072l.015.014c.379.379.79.707 1.222.988l39.938 39.938c1.464 1.464 3.384 2.196 5.303 2.196s3.839-.732 5.303-2.196c2.929-2.93 2.929-7.678 0-10.607l-41.368-41.368c-.38-.38-.792-.708-1.225-.989l-8.694-8.695c-2.822-2.821-2.982-7.372-.358-10.145 1.338-1.414 3.143-2.207 5.083-2.234 1.936-.019 3.766.715 5.138 2.086l13.79 13.79v.001c.379.379.789.706 1.221.987l36.491 36.491c1.464 1.464 3.384 2.196 5.303 2.196s3.839-.732 5.303-2.196c2.929-2.93 2.929-7.678 0-10.607l-37.921-37.921c-.196-.196-.4-.376-.611-.545-.841-1.209-1.288-2.643-1.267-4.15.026-1.939.82-3.744 2.233-5.083 2.772-2.623 7.324-2.464 10.146.359l13.79 13.789c.379.379.79.707 1.222.987l22.487 22.486c1.464 1.464 3.384 2.196 5.303 2.196s3.839-.732 5.303-2.196c2.929-2.93 2.929-7.678 0-10.607l-23.917-23.916c-.2-.2-.41-.383-.625-.555-1.984-2.812-1.859-6.682.475-9.147 1.338-1.414 3.144-2.208 5.083-2.234 1.927-.019 3.765.714 5.137 2.087l30.155 30.155c2.929 2.928 7.678 2.928 10.606 0 2.929-2.93 2.929-7.678 0-10.607l-30.155-30.154c-4.187-4.187-9.729-6.481-15.636-6.481-.104 0-.209.001-.313.003-6.024.082-11.625 2.54-15.771 6.92-1.576 1.665-2.837 3.528-3.784 5.514-8.575-7.366-21.609-7.262-29.818.509-1.957 1.853-3.53 3.995-4.679 6.336-4.042-3.558-9.158-5.491-14.583-5.491-.104 0-.209 0-.314.002-6.023.083-11.624 2.54-15.77 6.921-6.677 7.054-7.694 17.671-3.174 25.96-2.667 1.172-5.098 2.879-7.168 5.065-8.157 8.617-7.868 22.552.645 31.064l26.34 26.34c-2.122 1.042-4.109 2.444-5.872 4.207-8.625 8.626-8.625 22.663 0 31.29l29.992 29.992c15.665 15.663 37.357 24.269 59.505 23.575 2.708-.091 5.351.732 7.497 2.259-2.652 2.769-4.118 6.384-4.118 10.231 0 3.957 1.541 7.677 4.339 10.474l17.237 17.238c2.888 2.888 6.681 4.331 10.474 4.331s7.587-1.444 10.475-4.331l72.395-72.396c2.797-2.798 4.338-6.518 4.338-10.474.005-3.959-1.536-7.679-4.334-10.477zm-82.868 82.605-16.973-16.973 72.13-72.13 16.972 16.973z"/><path d="m283.433 275.626c13.763-19.655 9.01-36.097-1.806-43.671-7.309-5.118-17.472-4.702-27.489 1.028-10.017-5.731-20.18-6.146-27.489-1.028-10.815 7.574-15.568 24.016-1.806 43.671 5.262 7.515 12.539 14.387 19.964 18.854 2.878 1.731 6.104 2.597 9.332 2.597 3.227 0 6.453-.865 9.331-2.597 7.425-4.468 14.701-11.339 19.963-18.854zm-27.697 6c-.97.584-2.225.584-3.197 0-5.691-3.424-11.308-8.747-15.409-14.604-6.876-9.821-7.613-18.763-1.878-22.78.838-.586 1.943-.872 3.233-.872 2.591 0 5.927 1.151 9.344 3.322 3.832 2.438 8.785 2.437 12.615.001 5.12-3.253 10.056-4.218 12.578-2.451 5.736 4.018 5 12.959-1.877 22.78-4.101 5.857-9.717 11.18-15.409 14.604z"/></g></g></svg>